<svg id="Layer_2" data-name="Layer 2" xmlns="http://www.w3.org/2000/svg" viewBox="0 0 555.99 337.43"><defs><style>.cls-1,.cls-2{fill:#fff;}.cls-1{stroke:#1d1d1b;stroke-linecap:round;stroke-linejoin:round;stroke-width:20px;}.cls-3{fill:#1d1d1b;}</style></defs><polyline class="cls-1" points="138.09 193.89 277.99 10 277.99 263.88"/><polyline class="cls-1" points="417.9 193.89 277.99 10 277.99 263.88"/><path class="cls-2" d="M167.72,459.25a10,10,0,0,1-4.5-18.93L551.13,245A10,10,0,0,1,564,259.39L436.83,454.71a10,10,0,0,1-8.38,4.54Z" transform="translate(-19.64 -131.82)"/><path class="cls-3" d="M555.63,253.93h0m0,0L428.45,449.25H167.72L555.63,253.93m0-20c-.69,0-1.39,0-2.09.11a19.77,19.77,0,0,0-7.25,2.21L158.72,431.39a20,20,0,0,0,9,37.86H428.45a20,20,0,0,0,16.76-9.09l127-195A20,20,0,0,0,556.5,234c-.29,0-.58,0-.88,0Zm0,40h0Z" transform="translate(-19.64 -131.82)"/><path class="cls-2" d="M166.83,459.25a10,10,0,0,1-8.38-4.54L31.27,259.39A10,10,0,0,1,44.14,245L432.06,440.32a10,10,0,0,1-4.5,18.93Z" transform="translate(-19.64 -131.82)"/><path class="cls-3" d="M39.65,253.93,427.56,449.25H166.83L39.65,253.93m0-20a20,20,0,0,0-16.76,30.91L150.07,460.16a20,20,0,0,0,16.76,9.09H427.56a20,20,0,0,0,9-37.86L48.64,236.07a20,20,0,0,0-9-2.14Z" transform="translate(-19.64 -131.82)"/></svg>